<svg xmlns="http://www.w3.org/2000/svg" width="116" height="61.543" viewBox="0 0 116 61.543">
  <g id="Group_2" data-name="Group 2" transform="translate(0 0)">
    <path id="Path_1" data-name="Path 1" d="M149.152,241.465v-5h3.509c2.32,0,4.673-.048,6.985-.254a20.734,20.734,0,0,0,4.356-.75,12.663,12.663,0,0,0,6.8-5.066,15.8,15.8,0,0,0,2.485-9.014,16.625,16.625,0,0,0-2.7-9.57,13.568,13.568,0,0,0-7.5-5.4,24.948,24.948,0,0,0-4.862-.834c-2.44-.224-4.918-.282-7.367-.282H149.15v-5.14h3.335a71.234,71.234,0,0,1,7.829.371,25.011,25.011,0,0,1,5.435,1.112,18.115,18.115,0,0,1,9.426,7.33,22.217,22.217,0,0,1,3.382,12.353,21.757,21.757,0,0,1-2.685,10.906,17.351,17.351,0,0,1-7,7c-3.493,1.833-8.056,2.249-11.936,2.249Z" transform="translate(-141.42 -195.168)" fill="#fff" fill-rule="evenodd"/>
    <path id="Path_2" data-name="Path 2" d="M558.52,241.481v-5h3.51c2.32,0,4.673-.048,6.985-.254a20.737,20.737,0,0,0,4.356-.75,12.663,12.663,0,0,0,6.8-5.062,15.783,15.783,0,0,0,2.485-9.014,16.624,16.624,0,0,0-2.7-9.57,13.571,13.571,0,0,0-7.5-5.4,24.983,24.983,0,0,0-4.864-.834c-2.44-.224-4.918-.282-7.367-.282H558.52v-5.14h3.335a71.218,71.218,0,0,1,7.828.371,24.988,24.988,0,0,1,5.435,1.112,18.116,18.116,0,0,1,9.426,7.33,22.233,22.233,0,0,1,3.381,12.353,21.775,21.775,0,0,1-2.683,10.906,17.367,17.367,0,0,1-7.006,7c-3.491,1.833-8.057,2.249-11.937,2.249Z" transform="translate(-474.937 -195.185)" fill="#fff" fill-rule="evenodd"/>
    <path id="Path_3" data-name="Path 3" d="M333.912,209.465a10.516,10.516,0,0,1,2.765-6.895h0a8.19,8.19,0,0,1,6.052-2.422,8.036,8.036,0,0,1,5.84,2.307h0a7.35,7.35,0,0,1,2.375,5.481,9.524,9.524,0,0,1-1.338,4.849,49.224,49.224,0,0,1-6,7.319h0L327.54,237.469h28.805v-4.832H338.465l9.242-9.952a45.906,45.906,0,0,0,6.4-8.181,13.644,13.644,0,0,0,1.69-6.624,12.3,12.3,0,0,0-3.554-8.759h0a12.334,12.334,0,0,0-9.3-3.721,13.254,13.254,0,0,0-9.73,3.95l-.013.013.013-.013a14.257,14.257,0,0,0-4.106,10.058l-.013.493h4.781Z" transform="translate(-286.755 -191.3)" fill="#fff" fill-rule="evenodd"/>
    <path id="Path_4" data-name="Path 4" d="M113.758,207.94H107.43l3.721-3.865c.1-.106.217-.211.335-.321s.254-.222.4-.341h-4.221V202.5h6.326l-3.787,3.943c-.1.1-.213.206-.326.306s-.233.185-.358.28h4.234Zm-3.117,5.6v-2.409h.174c.2,0,.33-.013.4-.013a2.63,2.63,0,0,1,1.994.741,2.88,2.88,0,0,1,.712,2.072,3.772,3.772,0,0,1-.221,1.334,2.815,2.815,0,0,1-.665,1.027,3.013,3.013,0,0,1-1.036.661,3.45,3.45,0,0,1-1.271.233,3.391,3.391,0,0,1-1.273-.235,2.945,2.945,0,0,1-1.027-.7,3,3,0,0,1-.665-1.043,3.562,3.562,0,0,1-.23-1.28,3.035,3.035,0,0,1,.263-1.284,2.872,2.872,0,0,1,.8-1.012l.545.721a1.967,1.967,0,0,0-.532.695,2.066,2.066,0,0,0-.185.863,2.164,2.164,0,0,0,.636,1.616,2.244,2.244,0,0,0,1.647.624,2.29,2.29,0,0,0,1.668-.624,2.166,2.166,0,0,0,.643-1.623,2.055,2.055,0,0,0-.395-1.334,1.3,1.3,0,0,0-1.077-.487h-.087v1.464Zm3.117,7.914h-6.089v-.988h6.089Zm-1.219,7.169-.371-.789a1.086,1.086,0,0,0,.621-.413,1.28,1.28,0,0,0,.215-.765.982.982,0,0,0-.248-.7.854.854,0,0,0-.654-.259q-.535,0-.956.891c-.043.085-.072.148-.091.185a4.34,4.34,0,0,1-.889,1.342,1.453,1.453,0,0,1-.971.335,1.558,1.558,0,0,1-1.206-.506,1.886,1.886,0,0,1-.461-1.325,2.223,2.223,0,0,1,.261-1.127,1.368,1.368,0,0,1,.741-.628l.4.773a1.258,1.258,0,0,0-.421.4.947.947,0,0,0-.133.5.927.927,0,0,0,.209.636.7.7,0,0,0,.556.233c.371,0,.708-.343,1.023-1.032.026-.054.046-.095.057-.126a3.729,3.729,0,0,1,.813-1.238,1.482,1.482,0,0,1,.991-.337,1.79,1.79,0,0,1,1.375.545,2.081,2.081,0,0,1,.51,1.482,2.135,2.135,0,0,1-.358,1.275,1.668,1.668,0,0,1-1.023.649m1.219,6.313h-6.081v-3.4h.843v2.409h1.525v-2.409h.867v2.409h1.966v-2.409h.888Zm0,8.431h-6.081v-1.332a8.907,8.907,0,0,1,.13-1.833,2.5,2.5,0,0,1,1.482-1.731,3.612,3.612,0,0,1,1.443-.272,3.563,3.563,0,0,1,1.436.272,2.594,2.594,0,0,1,1.034.8,2.533,2.533,0,0,1,.439.91,6.959,6.959,0,0,1,.132,1.586v1.592Zm-.895-.988v-.834a4.274,4.274,0,0,0-.091-1.027,1.508,1.508,0,0,0-.308-.6,1.814,1.814,0,0,0-.741-.517,3.074,3.074,0,0,0-2.038,0,1.8,1.8,0,0,0-.741.517,1.561,1.561,0,0,0-.308.617,5.022,5.022,0,0,0-.091,1.127v.715Z" transform="translate(-107.43 -197.084)" fill="#fff"/>
    <path id="Path_5" data-name="Path 5" d="M526.215,201.334h-2.779l-3.3,2.051v-1.039l2.066-1.279.209-.113q.128-.069.278-.139c-.1-.039-.185-.08-.274-.124a2.215,2.215,0,0,1-.237-.133l-2.038-1.308v-.989l3.3,2.094h2.779Zm-2.726,5.8h2.726v.926h-6.087v-1.38a4.376,4.376,0,0,1,.08-.941,1.4,1.4,0,0,1,.83-1.008,1.9,1.9,0,0,1,.767-.154,1.718,1.718,0,0,1,1.145.354,1.562,1.562,0,0,1,.5,1.043l2.779-2.094v1.112l-2.735,2.031Zm-.765-.059v-.185a1.978,1.978,0,0,0-.185-1.045.741.741,0,0,0-.649-.258.822.822,0,0,0-.708.278,1.8,1.8,0,0,0-.206,1.025v.185Zm3.491,6.317h-6.087v-3.4h.843V212.4H522.5v-2.409h.867V212.4h1.968v-2.409h.884Zm.237,4.126-6.326,2.718v-1.028l3.246-1.354c.185-.082.371-.148.521-.2a4.388,4.388,0,0,1,.456-.126c-.152-.035-.309-.08-.474-.135s-.33-.12-.5-.2l-3.244-1.36v-1.023Zm-.237,5.153h-6.087v-.988h6.087Zm0,4.818h-6.087V226.5h5.2v-2.222h.884Zm0,5.329h-6.087v-3.406h.843v2.409H522.5v-2.409h.867v2.409h1.968v-2.409h.884Zm0,7.086h-6.087V238.57a8.734,8.734,0,0,1,.132-1.833,2.494,2.494,0,0,1,.437-.926,2.563,2.563,0,0,1,1.036-.8,3.626,3.626,0,0,1,1.443-.272,3.563,3.563,0,0,1,1.436.272,2.612,2.612,0,0,1,1.036.8,2.5,2.5,0,0,1,.437.91,6.968,6.968,0,0,1,.132,1.586v1.6Zm-.9-.988v-.834a4.27,4.27,0,0,0-.091-1.027,1.508,1.508,0,0,0-.308-.6,1.8,1.8,0,0,0-.741-.517,3.074,3.074,0,0,0-2.038,0,1.815,1.815,0,0,0-.741.517,1.562,1.562,0,0,0-.308.617A5.018,5.018,0,0,0,521,238.2v.715Z" transform="translate(-443.655 -193.63)" fill="#fff"/>
    <path id="Path_6" data-name="Path 6" d="M689.328,178.289a5.02,5.02,0,1,1-5-5.02A5.02,5.02,0,0,1,689.328,178.289Zm-9.405,0a4.388,4.388,0,1,0,4.391-4.39,4.388,4.388,0,0,0-4.391,4.39Z" transform="translate(-573.328 -173.27)" fill="#fff"/>
    <path id="Path_7" data-name="Path 7" d="M696.879,184.64l.185-.031c.148-.024.295-.048.443-.069.111-.015.221-.026.332-.035s.224-.02.337-.026a5.429,5.429,0,0,1,.556,0,3.181,3.181,0,0,1,.823.143,2.039,2.039,0,0,1,.647.333,1.482,1.482,0,0,1,.454.569,1.528,1.528,0,0,1,.12.473,1.978,1.978,0,0,1,0,.371,1.464,1.464,0,0,1-.582,1.049c-.057.043-.119.081-.185.122l-.044.028.017.02a2.115,2.115,0,0,1,.556.8,3.858,3.858,0,0,1,.172.532c.065.248.12.5.163.754.037.219.072.437.108.656v.032h-.947a.294.294,0,0,1-.009-.032c-.031-.248-.07-.495-.122-.741a4.5,4.5,0,0,0-.252-.834,2.216,2.216,0,0,0-.221-.4,1.221,1.221,0,0,0-.252-.265.8.8,0,0,0-.371-.165.9.9,0,0,0-.141-.011h-.839a.227.227,0,0,0,0,.032.4.4,0,0,0,0,.05v2.357a.1.1,0,0,1-.03,0h-.915v-5.635A.2.2,0,0,1,696.879,184.64Zm.945.719v1.71a.114.114,0,0,0,0,.02h.832a2.223,2.223,0,0,0,.495-.052,1.185,1.185,0,0,0,.319-.122.681.681,0,0,0,.333-.432,1.03,1.03,0,0,0,.011-.493.665.665,0,0,0-.28-.422,1.133,1.133,0,0,0-.13-.078,1.2,1.2,0,0,0-.285-.1,2.406,2.406,0,0,0-.515-.061h-.343c-.115,0-.274.013-.411.02Z" transform="translate(-587.657 -182.396)" fill="#fff"/>
    <rect id="Rectangle_1" data-name="Rectangle 1" width="112.998" height="0.295" transform="translate(0 50.068)" fill="#fff"/>
    <path id="Path_8" data-name="Path 8" d="M217.2,469.158v-7.6h1.232v6.485h2.759v1.112Zm-4.671,0-.86-1.953h-3.007l-.882,1.953h-1.3l3.674-7.888,3.672,7.888Zm-3.411-2.983h2.116l-.778-1.731c-.044-.109-.093-.237-.141-.371s-.1-.3-.145-.48c-.041.167-.085.321-.132.463s-.094.276-.143.4Zm-12.785,2.983V461.27l4.818,4.632c.132.132.263.271.4.419s.276.317.424.5v-5.262h1.136v7.886l-4.9-4.708c-.13-.13-.258-.263-.38-.406a5.237,5.237,0,0,1-.35-.447v5.279Zm-4.076-3.78a3.869,3.869,0,0,1-1.188,2.816,4.119,4.119,0,0,1-1.323.865,4.038,4.038,0,0,1-1.542.3,4.108,4.108,0,0,1-1.564-.3,4.057,4.057,0,0,1-1.314-.863,3.862,3.862,0,0,1-.88-1.282,3.908,3.908,0,0,1-.3-1.534,3.948,3.948,0,0,1,.3-1.534,3.893,3.893,0,0,1,.88-1.3,4.027,4.027,0,0,1,1.316-.862,4.167,4.167,0,0,1,1.562-.295,4.122,4.122,0,0,1,1.551.295,3.98,3.98,0,0,1,1.314.862,4.027,4.027,0,0,1,.884,1.3,3.92,3.92,0,0,1,.311,1.534Zm-1.286,0a2.9,2.9,0,0,0-.209-1.093,2.868,2.868,0,0,0-.6-.927,2.666,2.666,0,0,0-.888-.615,2.765,2.765,0,0,0-2.133,0,2.824,2.824,0,0,0-1.5,1.534,2.9,2.9,0,0,0-.207,1.1,2.856,2.856,0,0,0,.207,1.09,2.78,2.78,0,0,0,.6.915,2.741,2.741,0,0,0,3.02.619,2.8,2.8,0,0,0,.9-.619,2.829,2.829,0,0,0,.823-2Zm-12.159,3.78v-7.6h1.236v7.6Zm-5.62-6.539v6.539h-1.232v-6.539H169.94v-1.051H175.2v1.051Zm-6.545,6.539-.86-1.953h-3.005l-.882,1.953h-1.3l3.676-7.888,3.671,7.888Zm-3.411-2.983h2.118l-.778-1.731c-.043-.109-.093-.237-.139-.371s-.1-.3-.146-.48c-.041.167-.083.321-.132.463s-.094.276-.141.4Zm-12.785,2.983V461.27l4.818,4.632c.132.132.265.271.4.419s.276.317.424.5v-5.262h1.136v7.886l-4.91-4.708c-.13-.13-.258-.263-.38-.406a5.636,5.636,0,0,1-.35-.447v5.279Zm-7.443-3.4v3.4h-1.158v-7.6h1.721a5.469,5.469,0,0,1,1.175.1A1.734,1.734,0,0,1,146,462.695a2.342,2.342,0,0,1,.185.954,2.139,2.139,0,0,1-.441,1.429,1.946,1.946,0,0,1-1.3.619l2.618,3.461h-1.39l-2.527-3.4Zm.074-.956h.224a2.463,2.463,0,0,0,1.3-.228.938.938,0,0,0,.322-.81,1.063,1.063,0,0,0-.346-.882,2.258,2.258,0,0,0-1.277-.258h-.224Zm-9.543,4.353v-7.6h4.243v1.051h-3.005v1.907h3.005V465.6h-3.005v2.451h3.005v1.112Zm-5.605-6.539v6.539H126.7v-6.539h-2.01v-1.051h5.257v1.051ZM114.3,469.158V461.27l4.818,4.632c.13.132.263.271.4.419s.276.317.424.5v-5.262h1.136v7.886l-4.908-4.708c-.132-.13-.259-.263-.382-.406a5.636,5.636,0,0,1-.35-.447v5.279Zm-5.663,0v-7.6h1.232v7.6Z" transform="translate(-108.416 -407.906)" fill="#fff"/>
  </g>
</svg>
