<svg xmlns="http://www.w3.org/2000/svg" width="97" height="51.462" viewBox="0 0 97 51.462">
  <g id="Group_2" data-name="Group 2" transform="translate(0 0)">
    <path id="Path_1" data-name="Path 1" d="M149.152,234.7v-4.183h2.935c1.94,0,3.908-.04,5.841-.212a17.336,17.336,0,0,0,3.643-.627,10.589,10.589,0,0,0,5.685-4.236,13.21,13.21,0,0,0,2.078-7.538,13.9,13.9,0,0,0-2.259-8,11.346,11.346,0,0,0-6.269-4.517,20.864,20.864,0,0,0-4.066-.7c-2.041-.187-4.112-.235-6.161-.235H149.15v-4.3h2.789a59.573,59.573,0,0,1,6.546.31,20.915,20.915,0,0,1,4.544.93,15.148,15.148,0,0,1,7.882,6.129,18.578,18.578,0,0,1,2.828,10.33,18.193,18.193,0,0,1-2.245,9.12,14.509,14.509,0,0,1-5.857,5.852c-2.921,1.532-6.737,1.881-9.981,1.881Z" transform="translate(-142.686 -195.984)" fill-rule="evenodd"/>
    <path id="Path_2" data-name="Path 2" d="M558.52,234.715v-4.183h2.935c1.94,0,3.908-.04,5.841-.212a17.34,17.34,0,0,0,3.643-.628,10.589,10.589,0,0,0,5.686-4.233,13.2,13.2,0,0,0,2.078-7.538,13.9,13.9,0,0,0-2.259-8,11.348,11.348,0,0,0-6.267-4.517,20.891,20.891,0,0,0-4.067-.7c-2.041-.188-4.112-.236-6.16-.236H558.52v-4.3h2.789a59.553,59.553,0,0,1,6.546.31,20.9,20.9,0,0,1,4.545.93,15.149,15.149,0,0,1,7.882,6.13,18.591,18.591,0,0,1,2.828,10.33,18.208,18.208,0,0,1-2.244,9.12,14.522,14.522,0,0,1-5.858,5.852c-2.919,1.532-6.737,1.881-9.981,1.881Z" transform="translate(-488.627 -196.001)" fill-rule="evenodd"/>
    <path id="Path_3" data-name="Path 3" d="M332.868,207.162a8.793,8.793,0,0,1,2.312-5.765h0a6.848,6.848,0,0,1,5.06-2.025,6.72,6.72,0,0,1,4.884,1.929h0a6.146,6.146,0,0,1,1.986,4.583,7.964,7.964,0,0,1-1.119,4.055,41.16,41.16,0,0,1-5.02,6.12h0l-13.432,14.52h24.087v-4.041H336.675l7.729-8.322a38.386,38.386,0,0,0,5.355-6.841,11.409,11.409,0,0,0,1.413-5.539,10.285,10.285,0,0,0-2.972-7.324h0a10.314,10.314,0,0,0-7.78-3.111,11.083,11.083,0,0,0-8.136,3.3l-.011.011.011-.011a11.921,11.921,0,0,0-3.434,8.41l-.011.412h4Z" transform="translate(-293.436 -191.971)" fill-rule="evenodd"/>
    <path id="Path_4" data-name="Path 4" d="M112.721,207.049H107.43l3.111-3.232c.087-.088.181-.177.28-.268s.212-.186.338-.285h-3.53V202.5h5.29l-3.167,3.3c-.087.087-.178.172-.273.256s-.2.155-.3.234h3.54Zm-2.606,4.679v-2.014h.146c.164,0,.276-.011.333-.011a2.2,2.2,0,0,1,1.667.62,2.408,2.408,0,0,1,.595,1.732,3.155,3.155,0,0,1-.184,1.116,2.354,2.354,0,0,1-.556.858,2.52,2.52,0,0,1-.866.553,2.885,2.885,0,0,1-1.063.2,2.836,2.836,0,0,1-1.064-.2,2.462,2.462,0,0,1-.858-.583,2.509,2.509,0,0,1-.556-.872,2.978,2.978,0,0,1-.192-1.071,2.538,2.538,0,0,1,.22-1.074,2.4,2.4,0,0,1,.671-.846l.456.6a1.645,1.645,0,0,0-.445.581,1.727,1.727,0,0,0-.155.722,1.81,1.81,0,0,0,.531,1.351,1.876,1.876,0,0,0,1.377.522,1.915,1.915,0,0,0,1.394-.522,1.811,1.811,0,0,0,.538-1.357,1.718,1.718,0,0,0-.33-1.116,1.085,1.085,0,0,0-.9-.407H110.8v1.224Zm2.606,6.618H107.63v-.826h5.091Zm-1.02,5.995-.31-.66a.908.908,0,0,0,.519-.346,1.071,1.071,0,0,0,.18-.64.821.821,0,0,0-.208-.587.714.714,0,0,0-.547-.217q-.448,0-.8.745c-.036.071-.06.124-.076.155a3.629,3.629,0,0,1-.744,1.122,1.215,1.215,0,0,1-.812.28,1.3,1.3,0,0,1-1.009-.423,1.577,1.577,0,0,1-.386-1.108,1.859,1.859,0,0,1,.218-.942,1.144,1.144,0,0,1,.62-.525l.336.646a1.052,1.052,0,0,0-.352.336.792.792,0,0,0-.112.42.775.775,0,0,0,.175.531.589.589,0,0,0,.465.2c.31,0,.592-.287.855-.863.022-.045.039-.079.048-.105a3.118,3.118,0,0,1,.68-1.035,1.24,1.24,0,0,1,.829-.282,1.5,1.5,0,0,1,1.15.456,1.74,1.74,0,0,1,.426,1.24,1.785,1.785,0,0,1-.3,1.066,1.4,1.4,0,0,1-.855.542m1.02,5.279H107.63v-2.843h.7v2.014h1.275v-2.014h.725v2.014h1.644v-2.014h.742Zm0,7.05H107.63v-1.114a7.448,7.448,0,0,1,.108-1.532,2.092,2.092,0,0,1,1.24-1.447,3.02,3.02,0,0,1,1.207-.228,2.979,2.979,0,0,1,1.2.228,2.169,2.169,0,0,1,.865.669,2.118,2.118,0,0,1,.367.761,5.82,5.82,0,0,1,.11,1.326v1.331Zm-.748-.826v-.7a3.574,3.574,0,0,0-.076-.858,1.261,1.261,0,0,0-.257-.5,1.517,1.517,0,0,0-.62-.432,2.571,2.571,0,0,0-1.7,0,1.506,1.506,0,0,0-.62.432,1.305,1.305,0,0,0-.257.516,4.2,4.2,0,0,0-.076.942v.6Z" transform="translate(-107.43 -197.971)"/>
    <path id="Path_5" data-name="Path 5" d="M525.217,200.831h-2.324l-2.761,1.715v-.869l1.728-1.069.175-.094q.107-.057.232-.116c-.08-.033-.155-.067-.229-.1a1.865,1.865,0,0,1-.2-.112l-1.7-1.094v-.827l2.758,1.751h2.324Zm-2.279,4.85h2.279v.775h-5.09V205.3a3.654,3.654,0,0,1,.067-.787,1.168,1.168,0,0,1,.694-.843,1.588,1.588,0,0,1,.642-.129,1.436,1.436,0,0,1,.958.3,1.306,1.306,0,0,1,.415.872l2.324-1.751v.93l-2.287,1.7Zm-.64-.05v-.155a1.654,1.654,0,0,0-.155-.874.62.62,0,0,0-.542-.215.688.688,0,0,0-.592.232,1.507,1.507,0,0,0-.172.857v.155Zm2.919,5.282h-5.09v-2.842h.7v2.014h1.275v-2.014h.725v2.014h1.646v-2.014h.739Zm.2,3.451-5.29,2.273v-.86l2.715-1.133c.155-.068.31-.124.435-.167a3.67,3.67,0,0,1,.381-.105c-.127-.029-.259-.067-.4-.113s-.276-.1-.42-.164l-2.713-1.137V212.1Zm-.2,4.309h-5.09v-.826h5.09Zm0,4.029h-5.09v-.826h4.351v-1.858h.739Zm0,4.456h-5.09v-2.848h.7v2.014h1.275v-2.014h.725v2.014h1.646v-2.014h.739Zm0,5.925h-5.09v-1.114a7.3,7.3,0,0,1,.11-1.532,2.085,2.085,0,0,1,.366-.775,2.143,2.143,0,0,1,.866-.669,3.032,3.032,0,0,1,1.207-.228,2.979,2.979,0,0,1,1.2.228,2.185,2.185,0,0,1,.866.669,2.09,2.09,0,0,1,.366.761,5.826,5.826,0,0,1,.11,1.326v1.334Zm-.748-.826v-.7a3.573,3.573,0,0,0-.076-.858,1.262,1.262,0,0,0-.257-.5,1.506,1.506,0,0,0-.62-.432,2.571,2.571,0,0,0-1.7,0,1.518,1.518,0,0,0-.62.432,1.305,1.305,0,0,0-.257.516,4.194,4.194,0,0,0-.076.942v.6Z" transform="translate(-456.18 -194.388)"/>
    <path id="Path_6" data-name="Path 6" d="M687.684,177.467a4.2,4.2,0,1,1-4.183-4.2A4.2,4.2,0,0,1,687.684,177.467Zm-7.865,0a3.669,3.669,0,1,0,3.672-3.671,3.669,3.669,0,0,0-3.672,3.671Z" transform="translate(-590.684 -173.27)"/>
    <path id="Path_7" data-name="Path 7" d="M696.879,184.612l.155-.026c.124-.02.246-.04.37-.057.093-.012.184-.022.277-.029s.188-.017.282-.022a4.541,4.541,0,0,1,.465,0,2.66,2.66,0,0,1,.688.119,1.7,1.7,0,0,1,.541.279,1.24,1.24,0,0,1,.38.476,1.278,1.278,0,0,1,.1.4,1.653,1.653,0,0,1,0,.31,1.224,1.224,0,0,1-.487.877c-.048.036-.1.068-.155.1l-.037.023.014.017a1.768,1.768,0,0,1,.465.668,3.218,3.218,0,0,1,.144.445c.054.208.1.418.136.631.031.183.06.366.09.549v.026h-.792a.245.245,0,0,1-.008-.026c-.026-.208-.059-.414-.1-.62a3.758,3.758,0,0,0-.211-.7,1.851,1.851,0,0,0-.184-.336,1.021,1.021,0,0,0-.211-.222.672.672,0,0,0-.31-.138.755.755,0,0,0-.118-.009h-.7a.191.191,0,0,0,0,.026.341.341,0,0,0,0,.042v1.971a.084.084,0,0,1-.025,0h-.765v-4.712A.164.164,0,0,1,696.879,184.612Zm.79.6v1.43a.1.1,0,0,0,0,.017h.7a1.858,1.858,0,0,0,.414-.043.99.99,0,0,0,.266-.1.57.57,0,0,0,.279-.361.861.861,0,0,0,.009-.412.556.556,0,0,0-.234-.353.951.951,0,0,0-.108-.065,1.008,1.008,0,0,0-.239-.082,2.013,2.013,0,0,0-.431-.051h-.287c-.1,0-.229.011-.344.017Z" transform="translate(-605.546 -182.736)"/>
    <rect id="Rectangle_1" data-name="Rectangle 1" width="94.49" height="0.246" transform="translate(0 41.867)"/>
    <path id="Path_8" data-name="Path 8" d="M199.416,467.866v-6.353h1.03v5.423h2.307v.93Zm-3.906,0-.719-1.633h-2.515l-.738,1.633h-1.085l3.073-6.6,3.071,6.6Zm-2.852-2.495h1.769l-.651-1.447c-.037-.091-.077-.2-.118-.31s-.081-.253-.121-.4c-.034.139-.071.268-.11.387s-.079.231-.119.332Zm-10.691,2.495v-6.6l4.029,3.874c.11.11.22.226.335.35s.231.265.355.421v-4.4h.95v6.594l-4.1-3.937c-.108-.108-.215-.22-.318-.339a4.384,4.384,0,0,1-.293-.373v4.414Zm-3.409-3.161a3.235,3.235,0,0,1-.993,2.355,3.445,3.445,0,0,1-1.106.724,3.377,3.377,0,0,1-1.289.251,3.434,3.434,0,0,1-1.308-.253,3.391,3.391,0,0,1-1.1-.722,3.229,3.229,0,0,1-.736-1.072,3.268,3.268,0,0,1-.253-1.283,3.3,3.3,0,0,1,.253-1.283,3.255,3.255,0,0,1,.736-1.085,3.367,3.367,0,0,1,1.1-.72,3.485,3.485,0,0,1,1.306-.246,3.447,3.447,0,0,1,1.3.246,3.328,3.328,0,0,1,1.1.72,3.367,3.367,0,0,1,.739,1.085,3.278,3.278,0,0,1,.26,1.283Zm-1.075,0a2.425,2.425,0,0,0-.175-.914,2.4,2.4,0,0,0-.505-.775,2.228,2.228,0,0,0-.742-.514,2.312,2.312,0,0,0-1.783,0,2.361,2.361,0,0,0-1.253,1.283,2.427,2.427,0,0,0-.174.917,2.389,2.389,0,0,0,.174.911,2.325,2.325,0,0,0,.5.765,2.292,2.292,0,0,0,2.526.518,2.34,2.34,0,0,0,.752-.518,2.366,2.366,0,0,0,.688-1.673Zm-10.167,3.161v-6.353h1.033v6.353Zm-4.7-5.468v5.468h-1.03V462.4H159.9v-.879h4.4v.879Zm-5.473,5.468-.719-1.633h-2.513l-.738,1.633h-1.085l3.074-6.6,3.069,6.6Zm-2.852-2.495h1.771l-.651-1.447c-.036-.091-.077-.2-.116-.31s-.082-.253-.122-.4c-.034.139-.07.268-.11.387s-.079.231-.118.332ZM143.6,467.866v-6.6l4.029,3.874c.11.11.222.226.335.35s.231.265.355.421v-4.4h.95v6.594l-4.106-3.937c-.108-.108-.215-.22-.318-.339a4.717,4.717,0,0,1-.293-.373v4.414Zm-6.224-2.84v2.84h-.968v-6.353h1.439a4.576,4.576,0,0,1,.982.082,1.45,1.45,0,0,1,1.049.866,1.958,1.958,0,0,1,.155.8,1.788,1.788,0,0,1-.369,1.195,1.627,1.627,0,0,1-1.085.518l2.189,2.894h-1.162l-2.113-2.84Zm.062-.8h.187a2.06,2.06,0,0,0,1.085-.191.784.784,0,0,0,.27-.677.888.888,0,0,0-.29-.738,1.888,1.888,0,0,0-1.068-.215h-.187Zm-7.98,3.64v-6.353h3.548v.879h-2.513v1.594h2.513v.906h-2.513v2.05h2.513v.93Zm-4.687-5.468v5.468h-1.03V462.4H122.06v-.879h4.4v.879Zm-11.4,5.468v-6.6l4.028,3.874c.108.11.22.226.333.35s.231.265.355.421v-4.4h.95v6.594l-4.1-3.937c-.11-.108-.217-.22-.319-.339a4.717,4.717,0,0,1-.293-.373v4.414Zm-4.735,0v-6.353h1.03v6.353Z" transform="translate(-108.453 -416.647)"/>
  </g>
</svg>
