<svg xmlns="http://www.w3.org/2000/svg" width="32.338" height="27.37" viewBox="0 0 32.338 27.37">
  <g id="printing-paper-tool-svgrepo-com" transform="translate(1.017 1.007)">
    <g id="Group_26" data-name="Group 26" transform="translate(0)">
      <path id="Path_50" data-name="Path 50" d="M92.447,31.363V43.3a2.719,2.719,0,0,0,.91,1.92l3.083,2.4a2.312,2.312,0,0,0,2.045.3l11.709-4.829a.654.654,0,0,0,.2-1.206l-2.9-2.47a2.927,2.927,0,0,1-.905-1.961V23.628a.84.84,0,0,0-1.14-.853l-15.1,4.457,1.4,1.979A4.281,4.281,0,0,1,92.447,31.363Z" transform="translate(-80.402 -22.728)" fill="none" stroke="#3bb34a" stroke-width="2"/>
      <path id="Path_51" data-name="Path 51" d="M64.844,70.766l.045.03.1-.03Z" transform="translate(-57.704 -65.476)" fill="none" stroke="#3bb34a" stroke-width="2"/>
      <path id="Path_52" data-name="Path 52" d="M5.111,82.5a5.325,5.325,0,0,0,1.942-.273l2.419-.81s-.065-3.875,0-6.4a5,5,0,0,0-2.287-3.979L3.654,72.079A5.352,5.352,0,0,0,5.111,82.5ZM3,76.272c.624-.2,1.353.311,1.628,1.151A1.442,1.442,0,0,1,4,79.314c-.624.2-1.353-.311-1.628-1.151A1.441,1.441,0,0,1,3,76.272Z" transform="translate(0 -65.718)" fill="none" stroke="#3bb34a" stroke-width="2"/>
    </g>
  </g>
</svg>
