<svg xmlns="http://www.w3.org/2000/svg" width="28.764" height="32.734" viewBox="0 0 28.764 32.734">
  <g id="towel-svgrepo-com" transform="translate(0.5 0.5)">
    <path id="Path_61" data-name="Path 61" d="M269.619,456.94v8.289h4.353V456.94a1.693,1.693,0,0,0-1.692-1.692h-.968A1.693,1.693,0,0,0,269.619,456.94Z" transform="translate(-264.87 -441.194)" fill="none" stroke="#3bb34a" stroke-width="1"/>
    <path id="Path_62" data-name="Path 62" d="M358.5,456.918v15.462H344.584V456.918a1.693,1.693,0,0,0-1.692-1.693H356.8A1.693,1.693,0,0,1,358.5,456.918Z" transform="translate(-335.482 -441.172)" fill="none" stroke="#3bb34a" stroke-width="1"/>
    <path id="Path_63" data-name="Path 63" d="M358.5,456.918v.142H344.584v-.142a1.693,1.693,0,0,0-1.692-1.693H356.8A1.693,1.693,0,0,1,358.5,456.918Z" transform="translate(-335.482 -441.173)" fill="none" stroke="#3bb34a" stroke-width="1"/>
    <path id="Path_64" data-name="Path 64" d="M164.8,79.5l-11.549-3.911V73.742a.525.525,0,0,0-.525-.525,1.95,1.95,0,1,1,1.951-1.95.525.525,0,0,0,1.05,0A3,3,0,1,0,152.2,74.22v1.364L140.651,79.5a2.662,2.662,0,0,0,.853,5.184h1.563V92.3a.525.525,0,0,0,.525.525h2.575a.525.525,0,0,0,0-1.05h-2.051v-7.1h3.3v14.8a.525.525,0,0,0,.525.525h1.918a.525.525,0,0,0,0-1.05h-1.393V84.012a2.2,2.2,0,0,0-.333-1.168h12.029a1.169,1.169,0,0,1,1.168,1.168V89.73a.525.525,0,1,0,1.049,0V84.68h1.563A2.662,2.662,0,0,0,164.8,79.5ZM147.354,83.63h-3.172a1.169,1.169,0,0,1,1.1-.785h.968A1.168,1.168,0,0,1,147.354,83.63Zm17.731-.472a1.6,1.6,0,0,1-1.14.472h-1.6a2.221,2.221,0,0,0-2.184-1.835H145.284A2.22,2.22,0,0,0,143.1,83.63h-1.6a1.612,1.612,0,0,1-.517-3.139l11.738-3.975,11.737,3.975a1.612,1.612,0,0,1,.623,2.667Zm-3.228,7.859a.525.525,0,0,0-.525.525V98.95h-9.513a.525.525,0,0,0,0,1.05h10.038a.525.525,0,0,0,.525-.525V91.542a.525.525,0,0,0-.525-.525Z" transform="translate(-138.842 -68.267)" fill="none" stroke="#3bb34a" stroke-width="1"/>
  </g>
</svg>
