<svg xmlns="http://www.w3.org/2000/svg" width="26.829" height="24.661" viewBox="0 0 26.829 24.661">
  <g id="stiching-fabric-svgrepo-com" transform="translate(0.5 0.5)">
    <rect id="Rectangle_24" data-name="Rectangle 24" width="3.609" height="1.892" transform="translate(11.202 0.577)" fill="none" stroke="#3bb34a" stroke-width="1"/>
    <path id="Path_53" data-name="Path 53" d="M455.635,97.54v4.754h-2.386V97.54Z" transform="translate(-430.383 -93.704)" fill="none" stroke="#3bb34a" stroke-width="1"/>
    <rect id="Rectangle_25" data-name="Rectangle 25" width="22.288" height="2.579" transform="translate(0.578 20.504)" fill="none" stroke="#3bb34a" stroke-width="1"/>
    <path id="Path_54" data-name="Path 54" d="M16.816,70.448h14.9a2.016,2.016,0,0,1,2.016,2.016V88.482H11.446v-3.31H26.257L25.1,76.338h-8.17l-.577,4.417H11.446V75.183a4.735,4.735,0,0,1,4.735-4.735Zm14.839,4.461a1.647,1.647,0,1,0-1.647,1.647A1.647,1.647,0,0,0,31.655,74.908Zm0,8.474a1.647,1.647,0,1,0-1.647,1.647A1.647,1.647,0,0,0,31.655,83.382Z" transform="translate(-10.868 -67.978)" fill="none" stroke="#3bb34a" stroke-width="1"/>
    <g id="Group_27" data-name="Group 27" transform="translate(17.493 5.283)">
      <path id="Path_55" data-name="Path 55" d="M348.394,126.212a1.647,1.647,0,1,1-1.647,1.647A1.647,1.647,0,0,1,348.394,126.212Z" transform="translate(-346.747 -126.212)" fill="none" stroke="#3bb34a" stroke-width="1"/>
      <path id="Path_56" data-name="Path 56" d="M348.394,294.177a1.647,1.647,0,1,1-1.647,1.647A1.647,1.647,0,0,1,348.394,294.177Z" transform="translate(-346.747 -285.703)" fill="none" stroke="#3bb34a" stroke-width="1"/>
    </g>
    <path id="Path_57" data-name="Path 57" d="M337.525,287.182a2.225,2.225,0,1,0-2.224-2.225A2.227,2.227,0,0,0,337.525,287.182Zm0-3.295a1.07,1.07,0,1,1-1.069,1.07A1.071,1.071,0,0,1,337.525,283.888Z" transform="translate(-318.386 -269.554)" fill="none" stroke="#3bb34a" stroke-width="1"/>
    <path id="Path_58" data-name="Path 58" d="M337.525,119.215a2.224,2.224,0,1,0-2.224-2.224A2.227,2.227,0,0,0,337.525,119.215Zm0-3.294a1.07,1.07,0,1,1-1.069,1.07A1.071,1.071,0,0,1,337.525,115.921Z" transform="translate(-318.386 -110.061)" fill="none" stroke="#3bb34a" stroke-width="1"/>
    <path id="Path_59" data-name="Path 59" d="M25.252,24.754H23.134a2.6,2.6,0,0,0-2.284-1.367H19.717v-1.1a.577.577,0,0,0-1.155,0v1.1H15.388V22.072a.577.577,0,0,0-.577-.577H11.2a.577.577,0,0,0-.577.577v1.315H5.312A5.318,5.318,0,0,0,0,28.7v5.572a.577.577,0,0,0,.577.577H2.31v3.262H.577A.577.577,0,0,0,0,38.689v5.89a.577.577,0,0,0,.577.577H22.866a.577.577,0,0,0,.577-.577V30.663h1.809a.577.577,0,0,0,.577-.577V25.331A.578.578,0,0,0,25.252,24.754Zm-13.473-2.1h2.454v.737H11.779V22.65Zm-8.315,12.2H5.485a.578.578,0,0,0,.573-.5l.512-3.915h7.157l1,7.68H3.464Zm11.924,4.417a.577.577,0,0,0,.573-.652l-1.155-8.834a.577.577,0,0,0-.573-.5H6.063a.578.578,0,0,0-.573.5l-.512,3.915H1.155V28.7a4.162,4.162,0,0,1,4.157-4.157H5.37v1.386a.577.577,0,1,0,1.155,0V24.542H20.85a1.44,1.44,0,0,1,1.438,1.438V41.421H1.155V39.266ZM1.155,44V42.576H22.288V44Zm23.52-14.493H23.443v-3.6h1.232Z" transform="translate(0 -21.495)" fill="none" stroke="#3bb34a" stroke-width="1"/>
    <path id="Path_60" data-name="Path 60" d="M107.022,134.35a.577.577,0,0,0-.577.577v.26a.577.577,0,1,0,1.155,0v-.26A.577.577,0,0,0,107.022,134.35Z" transform="translate(-101.075 -128.657)" fill="none" stroke="#3bb34a" stroke-width="1"/>
  </g>
</svg>
